<svg width="457" height="379" viewBox="0 0 457 379" fill="none" xmlns="http://www.w3.org/2000/svg">
<path d="M40 283.5C40 283.224 40.2239 283 40.5 283H392.5C392.776 283 393 283.224 393 283.5V283.5C393 283.776 392.776 284 392.5 284H40.5C40.2239 284 40 283.776 40 283.5V283.5Z" fill="#E1E1E1"/>
<rect width="353" height="1" rx="0.5" transform="matrix(1 0 0 -1 40 329)" fill="#E1E1E1"/>
<path d="M33.4294 199.581L26.6379 211.276L51.5396 225.737L49.6223 229.039L21.7769 212.868L32.4031 194.57L60.2484 210.74L58.3311 214.042L33.4294 199.581Z" fill="#E1E1E1"/>
<path d="M68.8978 173.303C65.1621 169.493 62.953 165.904 62.2706 162.536C61.6101 159.146 62.6813 156.077 65.4842 153.329C67.0171 151.826 68.5881 150.844 70.1974 150.383C71.8286 149.901 73.4879 149.863 75.1754 150.27C76.8414 150.655 78.5359 151.441 80.2591 152.629C81.9607 153.796 83.6918 155.276 85.4523 157.072C89.188 160.882 91.3861 164.482 92.0466 167.871C92.729 171.239 91.6468 174.319 88.8002 177.11C87.2892 178.591 85.7291 179.563 84.1198 180.024C82.5105 180.485 80.8729 180.523 79.2069 180.138C77.5194 179.731 75.8249 178.945 74.1232 177.778C72.4001 176.59 70.6583 175.099 68.8978 173.303ZM71.7882 170.469C73.0335 171.739 74.2909 172.868 75.5606 173.857C76.8522 174.824 78.1355 175.541 79.4103 176.009C80.6637 176.455 81.8874 176.608 83.0815 176.468C84.2541 176.306 85.366 175.71 86.417 174.679C88.3002 172.833 88.9174 170.725 88.2685 168.355C87.6416 165.963 85.7393 163.147 82.5618 159.906C81.3381 158.658 80.0804 157.55 78.7888 156.583C77.4976 155.573 76.2254 154.845 74.972 154.399C73.6972 153.931 72.4625 153.789 71.268 153.972C70.052 154.133 68.9184 154.729 67.8674 155.76C66.0061 157.585 65.4106 159.693 66.0809 162.085C66.7298 164.456 68.6322 167.25 71.7882 170.469Z" fill="#E1E1E1"/>
<path d="M108.859 120.481C109.744 119.675 110.754 118.904 111.889 118.168C113.024 117.433 114.169 116.746 115.322 116.106C116.555 115.421 117.869 114.85 119.263 114.392C120.684 113.919 122.096 113.714 123.499 113.777C124.902 113.84 126.237 114.256 127.506 115.025C128.801 115.78 129.933 117.028 130.9 118.771C131.852 120.487 132.348 122.106 132.386 123.628C132.424 125.15 132.142 126.57 131.539 127.886C130.922 129.175 130.046 130.346 128.911 131.396C127.775 132.447 126.51 133.36 125.116 134.134C124.982 134.208 124.754 134.335 124.432 134.513C124.137 134.677 123.816 134.855 123.467 135.049C123.13 135.201 122.794 135.352 122.457 135.504C122.12 135.656 121.878 135.756 121.729 135.803L127.666 146.502L124.328 148.355L108.859 120.481ZM117.009 118.957C116.312 119.344 115.649 119.729 115.02 120.113C114.392 120.497 113.92 120.847 113.604 121.163L120.077 132.827C120.241 132.806 120.478 132.727 120.787 132.59C121.082 132.427 121.398 132.269 121.735 132.117C122.057 131.939 122.365 131.767 122.66 131.604C122.955 131.44 123.169 131.321 123.303 131.247C124.215 130.741 125.069 130.162 125.864 129.51C126.672 128.816 127.311 128.04 127.782 127.183C128.253 126.325 128.472 125.362 128.44 124.292C128.435 123.208 128.075 122.022 127.361 120.735C126.75 119.636 126.03 118.843 125.199 118.357C124.38 117.83 123.503 117.545 122.568 117.503C121.645 117.419 120.702 117.521 119.74 117.81C118.777 118.098 117.867 118.481 117.009 118.957Z" fill="#E1E1E1"/>
<path d="M150.009 95.4928L173.238 89.782L175.248 97.9566L171.942 98.7692L170.745 93.9002L164.268 95.4927L170.33 120.15L175.244 118.942L176.056 122.248L162.521 125.576L161.709 122.27L166.622 121.062L160.56 96.4042L154.128 97.9857L155.325 102.855L152.019 103.667L150.009 95.4928Z" fill="#E1E1E1"/>
<path d="M221.875 115.054C220.526 115.016 219.197 114.809 217.889 114.434C216.611 114.06 215.479 113.398 214.494 112.45C213.51 111.47 212.72 110.113 212.126 108.378C211.562 106.644 211.32 104.397 211.399 101.639C211.47 99.1555 211.822 97.0488 212.454 95.3182C213.087 93.5876 213.909 92.1999 214.92 91.1551C215.933 90.0797 217.105 89.3156 218.438 88.8629C219.77 88.4103 221.172 88.205 222.643 88.2472L222.738 84.9365L226.554 85.0459L226.459 88.3566C227.778 88.3943 229.075 88.6309 230.351 89.0663C231.628 89.4711 232.773 90.1942 233.786 91.2356C234.8 92.2464 235.604 93.6194 236.199 95.3545C236.794 97.0589 237.054 99.2446 236.977 101.911C236.903 104.517 236.518 106.684 235.825 108.413C235.161 110.143 234.294 111.514 233.222 112.526C232.18 113.539 230.994 114.242 229.664 114.633C228.364 115.025 227.04 115.202 225.691 115.164L225.579 119.072L221.763 118.963L221.875 115.054ZM233.161 101.802C233.212 100.024 233.087 98.5019 232.786 97.2354C232.485 95.9383 232.025 94.882 231.404 94.0666C230.814 93.252 230.079 92.648 229.201 92.2547C228.323 91.8307 227.333 91.6029 226.229 91.5713L225.644 111.987C226.748 112.019 227.748 111.894 228.646 111.613C229.575 111.302 230.358 110.757 230.994 109.977C231.63 109.198 232.135 108.154 232.51 106.845C232.886 105.506 233.103 103.825 233.161 101.802ZM215.215 101.748C215.162 103.587 215.256 105.139 215.496 106.404C215.766 107.669 216.181 108.709 216.741 109.523C217.301 110.306 218.021 110.894 218.899 111.287C219.809 111.651 220.862 111.85 222.058 111.884L222.643 91.4685C221.6 91.4386 220.63 91.5795 219.731 91.8913C218.864 92.1732 218.097 92.7188 217.43 93.528C216.794 94.3074 216.272 95.3662 215.866 96.7045C215.49 98.0436 215.273 99.7247 215.215 101.748Z" fill="#E1E1E1"/>
<path d="M258.298 108.181C259.869 103.081 261.972 99.4291 264.608 97.2246C267.274 95.0292 270.482 94.5091 274.234 95.6643C276.285 96.2961 277.897 97.2096 279.069 98.4048C280.271 99.6091 281.094 101.05 281.541 102.728C281.996 104.376 282.111 106.24 281.888 108.321C281.673 110.373 281.196 112.601 280.456 115.004C278.885 120.104 276.767 123.751 274.102 125.947C271.465 128.151 268.242 128.667 264.432 127.493C262.41 126.871 260.813 125.962 259.641 124.766C258.468 123.571 257.655 122.149 257.2 120.501C256.754 118.824 256.638 116.959 256.853 114.907C257.076 112.826 257.558 110.584 258.298 108.181ZM262.167 109.372C261.644 111.072 261.25 112.716 260.986 114.303C260.751 115.899 260.731 117.369 260.927 118.713C261.132 120.027 261.58 121.176 262.272 122.159C262.973 123.113 264.027 123.807 265.434 124.24C267.955 125.016 270.102 124.555 271.877 122.855C273.681 121.164 275.251 118.15 276.587 113.813C277.101 112.142 277.476 110.509 277.711 108.912C277.984 107.296 278.018 105.83 277.813 104.516C277.617 103.172 277.154 102.019 276.424 101.056C275.703 100.063 274.639 99.3508 273.232 98.9176C270.741 98.1504 268.603 98.6313 266.819 100.36C265.044 102.06 263.494 105.064 262.167 109.372Z" fill="#E1E1E1"/>
<path d="M336.004 129.437L328.676 124.758C325.117 129.762 322.02 133.843 319.385 137C316.793 140.148 314.46 142.405 312.386 143.773C311.025 144.651 309.775 145.126 308.637 145.2C307.498 145.273 306.476 145.021 305.572 144.444C305.107 144.147 304.731 143.852 304.444 143.56C304.141 143.294 303.876 142.997 303.648 142.67L305.857 140.15C306.066 140.393 306.313 140.605 306.597 140.787C307.037 141.067 307.554 141.197 308.149 141.177C308.77 141.173 309.535 140.916 310.443 140.405C311.251 139.938 312.181 139.222 313.234 138.257C314.313 137.308 315.538 136.017 316.909 134.382C318.306 132.763 319.867 130.776 321.59 128.42C323.329 126.037 325.294 123.217 327.484 119.958L341.053 128.623L323.724 155.762L320.506 153.707L336.004 129.437Z" fill="#E1E1E1"/>
<path d="M364.423 176.539L368.022 173.66L367.837 173.456L362.225 174.929L338.779 179.989L336.343 177.292L360.24 155.71L362.799 158.543L346.754 173.034L343.22 175.916L343.405 176.12L348.986 174.613L372.603 169.399L375.039 172.096L351.142 193.678L348.583 190.845L364.423 176.539Z" fill="#E1E1E1"/>
<path d="M383.743 212.959C388.508 210.559 392.599 209.546 396.015 209.92C399.445 210.321 402.043 212.274 403.809 215.78C404.775 217.697 405.232 219.493 405.183 221.166C405.146 222.867 404.678 224.459 403.777 225.943C402.904 227.413 401.639 228.788 399.984 230.068C398.355 231.335 396.418 232.534 394.172 233.665C389.407 236.066 385.309 237.065 381.879 236.664C378.463 236.29 375.858 234.323 374.065 230.762C373.113 228.872 372.662 227.091 372.712 225.418C372.762 223.744 373.224 222.172 374.097 220.702C374.998 219.219 376.262 217.843 377.891 216.577C379.546 215.296 381.497 214.091 383.743 212.959ZM385.564 216.575C383.975 217.375 382.517 218.229 381.19 219.139C379.876 220.075 378.802 221.079 377.969 222.152C377.163 223.21 376.645 224.329 376.415 225.509C376.213 226.676 376.443 227.916 377.105 229.231C378.292 231.586 380.112 232.815 382.568 232.918C385.037 233.048 388.298 232.092 392.351 230.05C393.912 229.263 395.35 228.402 396.664 227.466C398.019 226.543 399.099 225.552 399.905 224.494C400.739 223.421 401.25 222.288 401.438 221.095C401.654 219.887 401.431 218.626 400.769 217.311C399.596 214.983 397.768 213.775 395.286 213.686C392.831 213.584 389.59 214.547 385.564 216.575Z" fill="#E1E1E1"/>
<path d="M121.582 247.04C121.129 246.853 120.622 246.72 120.062 246.64C119.529 246.533 118.876 246.48 118.102 246.48C117.009 246.48 115.929 246.68 114.862 247.08C113.822 247.48 112.889 248.133 112.062 249.04C111.262 249.947 110.609 251.133 110.102 252.6C109.622 254.067 109.382 255.867 109.382 258C109.382 259.92 109.596 261.6 110.022 263.04C110.476 264.48 111.089 265.68 111.862 266.64C112.662 267.6 113.609 268.32 114.702 268.8C115.822 269.28 117.062 269.52 118.422 269.52C119.116 269.52 119.756 269.467 120.342 269.36C120.956 269.227 121.516 269.053 122.022 268.84V264.84H124.982V270.24L125.022 270.32C124.222 270.933 123.209 271.453 121.982 271.88C120.756 272.28 119.262 272.48 117.502 272.48C115.822 272.48 114.262 272.2 112.822 271.64C111.409 271.053 110.182 270.173 109.142 269C108.102 267.827 107.289 266.333 106.702 264.52C106.142 262.68 105.862 260.507 105.862 258C105.862 255.387 106.182 253.173 106.822 251.36C107.462 249.52 108.329 248.027 109.422 246.88C110.516 245.707 111.782 244.853 113.222 244.32C114.689 243.787 116.249 243.52 117.902 243.52C118.809 243.52 119.596 243.56 120.262 243.64C120.929 243.693 121.516 243.787 122.022 243.92C122.529 244.027 122.969 244.173 123.342 244.36C123.742 244.547 124.129 244.76 124.502 245H124.542V251.32H121.582V247.04ZM133.647 244H154.447V251.32H151.487V246.96H145.687V269.04H150.087V272H137.967V269.04H142.367V246.96H136.607V251.32H133.647V244ZM172.791 260.64H175.351L180.231 244H183.631L177.951 262.2C177.418 264.04 176.885 265.6 176.351 266.88C175.845 268.16 175.285 269.2 174.671 270C174.085 270.773 173.431 271.333 172.711 271.68C171.991 272.027 171.165 272.2 170.231 272.2C169.351 272.2 168.645 272.133 168.111 272C167.605 271.84 167.125 271.613 166.671 271.32L167.671 268.56C168.205 268.853 168.698 269.04 169.151 269.12C169.605 269.2 170.018 269.24 170.391 269.24C171.138 269.24 171.858 268.8 172.551 267.92C173.245 267.04 173.818 265.6 174.271 263.6L170.671 263.56L162.031 244H165.871L172.791 260.64ZM212.976 277.64H210.176V272H192.736V277.64H189.936V269.04H192.616C192.722 268.72 192.962 268.013 193.336 266.92C193.736 265.827 194.136 264.28 194.536 262.28C194.962 260.28 195.349 257.773 195.696 254.76C196.042 251.747 196.216 248.16 196.216 244H209.976V269.04H212.976V277.64ZM206.656 269.04V246.96H199.336C199.256 249.893 199.082 252.533 198.816 254.88C198.576 257.227 198.296 259.307 197.976 261.12C197.656 262.933 197.322 264.493 196.976 265.8C196.656 267.107 196.376 268.187 196.136 269.04H206.656ZM222.68 244H239.12V246.96H226V256.12H238.12V259.08H226V269.04H239.32V272H222.68V244ZM265.464 259.16H252.904V272H249.584V244H252.904V256.2H265.464V244H268.784V272H265.464V259.16ZM277.569 244H298.369V251.32H295.409V246.96H289.609V269.04H294.009V272H281.889V269.04H286.289V246.96H280.529V251.32H277.569V244ZM321.993 264.24H311.233L308.673 272H305.393L314.753 244H318.673L328.113 272H324.633L321.993 264.24ZM312.273 261.36H321.073L316.953 248.2H316.473L312.273 261.36Z" fill="#E1E1E1"/>
<path d="M41.2 310.25C41.2 307.35 41.7083 305.117 42.725 303.55C43.7583 301.983 45.3417 301.2 47.475 301.2C48.6417 301.2 49.625 301.417 50.425 301.85C51.2417 302.283 51.9 302.9 52.4 303.7C52.9 304.483 53.2583 305.433 53.475 306.55C53.6917 307.65 53.8 308.883 53.8 310.25C53.8 313.15 53.2833 315.383 52.25 316.95C51.2333 318.517 49.6417 319.3 47.475 319.3C46.325 319.3 45.35 319.083 44.55 318.65C43.75 318.217 43.1 317.608 42.6 316.825C42.1 316.025 41.7417 315.075 41.525 313.975C41.3083 312.858 41.2 311.617 41.2 310.25ZM43.4 310.25C43.4 311.217 43.4583 312.133 43.575 313C43.7083 313.867 43.9333 314.633 44.25 315.3C44.5667 315.95 44.9833 316.475 45.5 316.875C46.0167 317.258 46.675 317.45 47.475 317.45C48.9083 317.45 49.95 316.867 50.6 315.7C51.2667 314.533 51.6 312.717 51.6 310.25C51.6 309.3 51.5333 308.392 51.4 307.525C51.2833 306.642 51.0667 305.875 50.75 305.225C50.4333 304.558 50.0083 304.033 49.475 303.65C48.9417 303.25 48.275 303.05 47.475 303.05C46.0583 303.05 45.025 303.642 44.375 304.825C43.725 305.992 43.4 307.8 43.4 310.25ZM65.4152 310.975H57.5652V319H55.4902V301.5H57.5652V309.125H65.4152V301.5H67.4902V319H65.4152V310.975ZM79.0055 303.35H74.2805C74.1138 306.683 73.8888 309.458 73.6055 311.675C73.3388 313.875 72.9305 315.592 72.3805 316.825C72.0138 317.625 71.5805 318.208 71.0805 318.575C70.5805 318.942 70.0388 319.125 69.4555 319.125C69.1555 319.125 68.8971 319.1 68.6805 319.05C68.4638 319.017 68.2555 318.958 68.0555 318.875L68.3305 317.075C68.4971 317.125 68.6721 317.15 68.8555 317.15C69.1388 317.15 69.4138 317.058 69.6805 316.875C69.9638 316.692 70.2388 316.35 70.5055 315.85C70.7388 315.4 70.9555 314.8 71.1555 314.05C71.3721 313.3 71.5555 312.35 71.7055 311.2C71.8721 310.05 72.0055 308.683 72.1055 307.1C72.2055 305.5 72.2805 303.633 72.3305 301.5H81.0805V319H79.0055V303.35ZM85.1957 310.875H93.7457V312.725H85.1957V310.875ZM98.6609 301.5H108.161V303.35H100.736V308.6C101.019 308.55 101.369 308.5 101.786 308.45C102.203 308.4 102.603 308.375 102.986 308.375C103.836 308.375 104.644 308.458 105.411 308.625C106.178 308.775 106.853 309.042 107.436 309.425C108.019 309.808 108.478 310.333 108.811 311C109.161 311.65 109.336 312.475 109.336 313.475C109.336 314.475 109.161 315.342 108.811 316.075C108.461 316.792 107.994 317.383 107.411 317.85C106.828 318.3 106.144 318.642 105.361 318.875C104.594 319.092 103.786 319.2 102.936 319.2C102.653 319.2 102.328 319.192 101.961 319.175C101.611 319.175 101.236 319.158 100.836 319.125C100.453 319.092 100.069 319.05 99.6859 319C99.3193 318.967 98.9776 318.908 98.6609 318.825V301.5ZM103.186 317.4C103.719 317.4 104.228 317.333 104.711 317.2C105.194 317.05 105.611 316.825 105.961 316.525C106.328 316.225 106.611 315.85 106.811 315.4C107.028 314.95 107.136 314.425 107.136 313.825C107.136 313.058 107.011 312.433 106.761 311.95C106.528 311.467 106.211 311.1 105.811 310.85C105.411 310.583 104.944 310.408 104.411 310.325C103.894 310.225 103.353 310.175 102.786 310.175C102.636 310.175 102.461 310.183 102.261 310.2C102.061 310.217 101.861 310.233 101.661 310.25C101.461 310.267 101.278 310.292 101.111 310.325C100.944 310.342 100.819 310.358 100.736 310.375V317.25C100.853 317.283 101.003 317.308 101.186 317.325C101.386 317.342 101.594 317.358 101.811 317.375C102.044 317.392 102.278 317.4 102.511 317.4C102.744 317.4 102.969 317.4 103.186 317.4ZM120.726 314.15H114.001L112.401 319H110.351L116.201 301.5H118.651L124.551 319H122.376L120.726 314.15ZM114.651 312.35H120.151L117.576 304.125H117.276L114.651 312.35ZM130.066 310.9H128.141V319H126.066V301.5H128.141V309.3H130.016L135.641 301.5H138.041L131.866 309.825L138.816 319H136.191L130.066 310.9ZM141.157 310.875H149.707V312.725H141.157V310.875ZM166.522 322.525H164.772V319H153.872V322.525H152.122V317.15H153.797C153.864 316.95 154.014 316.508 154.247 315.825C154.497 315.142 154.747 314.175 154.997 312.925C155.264 311.675 155.505 310.108 155.722 308.225C155.939 306.342 156.047 304.1 156.047 301.5H164.647V317.15H166.522V322.525ZM162.572 317.15V303.35H157.997C157.947 305.183 157.839 306.833 157.672 308.3C157.522 309.767 157.347 311.067 157.147 312.2C156.947 313.333 156.739 314.308 156.522 315.125C156.322 315.942 156.147 316.617 155.997 317.15H162.572ZM177.337 307.4L177.487 304.9H177.337L175.887 307.7L169.387 319H167.412V301.5H169.487V313.25L169.362 315.725H169.512L170.937 312.925L177.437 301.5H179.412V319H177.337V307.4ZM181.902 314.425H183.752V317.05C184.152 317.183 184.602 317.3 185.102 317.4C185.602 317.5 186.144 317.55 186.727 317.55C187.994 317.55 189.011 317.25 189.777 316.65C190.561 316.05 190.952 315.15 190.952 313.95C190.952 312.9 190.594 312.125 189.877 311.625C189.161 311.108 188.211 310.808 187.027 310.725H185.527V308.975H187.252C187.686 308.925 188.094 308.817 188.477 308.65C188.861 308.467 189.194 308.242 189.477 307.975C189.777 307.708 190.011 307.4 190.177 307.05C190.344 306.7 190.427 306.325 190.427 305.925C190.427 305.375 190.327 304.917 190.127 304.55C189.944 304.167 189.686 303.858 189.352 303.625C189.019 303.392 188.619 303.225 188.152 303.125C187.686 303.008 187.169 302.95 186.602 302.95C186.119 302.95 185.644 302.983 185.177 303.05C184.711 303.117 184.286 303.2 183.902 303.3V305.775H182.052V302.075V302.05C182.219 301.95 182.461 301.85 182.777 301.75C183.094 301.65 183.469 301.558 183.902 301.475C184.336 301.392 184.811 301.325 185.327 301.275C185.844 301.225 186.386 301.2 186.952 301.2C187.702 301.2 188.419 301.275 189.102 301.425C189.786 301.558 190.386 301.792 190.902 302.125C191.436 302.442 191.852 302.883 192.152 303.45C192.469 304 192.627 304.683 192.627 305.5C192.627 306.333 192.352 307.133 191.802 307.9C191.269 308.65 190.452 309.192 189.352 309.525V309.625C190.536 309.792 191.461 310.233 192.127 310.95C192.811 311.667 193.152 312.625 193.152 313.825C193.152 314.775 192.969 315.6 192.602 316.3C192.236 316.983 191.744 317.55 191.127 318C190.527 318.45 189.844 318.783 189.077 319C188.311 319.2 187.527 319.3 186.727 319.3C185.577 319.3 184.602 319.2 183.802 319C183.002 318.783 182.369 318.583 181.902 318.4V318.375V314.425ZM197.118 310.875H205.668V312.725H197.118V310.875ZM219.058 303.35H211.708V319H209.633V301.5H221.133V319H219.058V303.35ZM224.373 301.675C225.006 301.525 225.69 301.425 226.423 301.375C227.156 301.325 227.881 301.3 228.598 301.3C229.365 301.3 230.14 301.375 230.923 301.525C231.723 301.675 232.448 301.95 233.098 302.35C233.748 302.75 234.273 303.3 234.673 304C235.09 304.7 235.298 305.592 235.298 306.675C235.298 307.742 235.106 308.642 234.723 309.375C234.34 310.108 233.831 310.708 233.198 311.175C232.565 311.625 231.84 311.95 231.023 312.15C230.206 312.35 229.365 312.45 228.498 312.45C228.415 312.45 228.273 312.45 228.073 312.45C227.89 312.45 227.69 312.45 227.473 312.45C227.273 312.433 227.073 312.417 226.873 312.4C226.673 312.383 226.531 312.367 226.448 312.35V319H224.373V301.675ZM228.648 303.1C228.215 303.1 227.798 303.108 227.398 303.125C226.998 303.142 226.681 303.183 226.448 303.25V310.5C226.531 310.533 226.665 310.558 226.848 310.575C227.031 310.575 227.223 310.583 227.423 310.6C227.623 310.6 227.815 310.6 227.998 310.6C228.181 310.6 228.315 310.6 228.398 310.6C228.965 310.6 229.523 310.55 230.073 310.45C230.64 310.333 231.148 310.133 231.598 309.85C232.048 309.567 232.406 309.167 232.673 308.65C232.956 308.133 233.098 307.475 233.098 306.675C233.098 305.992 232.965 305.425 232.698 304.975C232.448 304.508 232.106 304.142 231.673 303.875C231.256 303.592 230.781 303.392 230.248 303.275C229.715 303.158 229.181 303.1 228.648 303.1ZM237.063 310.25C237.063 307.35 237.572 305.117 238.588 303.55C239.622 301.983 241.205 301.2 243.338 301.2C244.505 301.2 245.488 301.417 246.288 301.85C247.105 302.283 247.763 302.9 248.263 303.7C248.763 304.483 249.122 305.433 249.338 306.55C249.555 307.65 249.663 308.883 249.663 310.25C249.663 313.15 249.147 315.383 248.113 316.95C247.097 318.517 245.505 319.3 243.338 319.3C242.188 319.3 241.213 319.083 240.413 318.65C239.613 318.217 238.963 317.608 238.463 316.825C237.963 316.025 237.605 315.075 237.388 313.975C237.172 312.858 237.063 311.617 237.063 310.25ZM239.263 310.25C239.263 311.217 239.322 312.133 239.438 313C239.572 313.867 239.797 314.633 240.113 315.3C240.43 315.95 240.847 316.475 241.363 316.875C241.88 317.258 242.538 317.45 243.338 317.45C244.772 317.45 245.813 316.867 246.463 315.7C247.13 314.533 247.463 312.717 247.463 310.25C247.463 309.3 247.397 308.392 247.263 307.525C247.147 306.642 246.93 305.875 246.613 305.225C246.297 304.558 245.872 304.033 245.338 303.65C244.805 303.25 244.138 303.05 243.338 303.05C241.922 303.05 240.888 303.642 240.238 304.825C239.588 305.992 239.263 307.8 239.263 310.25ZM251.604 301.5H263.604V306.075H261.754V303.35H256.079V317.15H260.004V319H251.604V317.15H254.004V303.35H251.604V301.5ZM267.069 310.875H275.619V312.725H267.069V310.875ZM280.534 301.5H290.034V303.35H282.609V308.6C282.892 308.55 283.242 308.5 283.659 308.45C284.076 308.4 284.476 308.375 284.859 308.375C285.709 308.375 286.517 308.458 287.284 308.625C288.051 308.775 288.726 309.042 289.309 309.425C289.892 309.808 290.351 310.333 290.684 311C291.034 311.65 291.209 312.475 291.209 313.475C291.209 314.475 291.034 315.342 290.684 316.075C290.334 316.792 289.867 317.383 289.284 317.85C288.701 318.3 288.017 318.642 287.234 318.875C286.467 319.092 285.659 319.2 284.809 319.2C284.526 319.2 284.201 319.192 283.834 319.175C283.484 319.175 283.109 319.158 282.709 319.125C282.326 319.092 281.942 319.05 281.559 319C281.192 318.967 280.851 318.908 280.534 318.825V301.5ZM285.059 317.4C285.592 317.4 286.101 317.333 286.584 317.2C287.067 317.05 287.484 316.825 287.834 316.525C288.201 316.225 288.484 315.85 288.684 315.4C288.901 314.95 289.009 314.425 289.009 313.825C289.009 313.058 288.884 312.433 288.634 311.95C288.401 311.467 288.084 311.1 287.684 310.85C287.284 310.583 286.817 310.408 286.284 310.325C285.767 310.225 285.226 310.175 284.659 310.175C284.509 310.175 284.334 310.183 284.134 310.2C283.934 310.217 283.734 310.233 283.534 310.25C283.334 310.267 283.151 310.292 282.984 310.325C282.817 310.342 282.692 310.358 282.609 310.375V317.25C282.726 317.283 282.876 317.308 283.059 317.325C283.259 317.342 283.467 317.358 283.684 317.375C283.917 317.392 284.151 317.4 284.384 317.4C284.617 317.4 284.842 317.4 285.059 317.4ZM302.999 303.35H295.649V319H293.574V301.5H305.074V319H302.999V303.35ZM318.314 305.925C318.314 307.458 317.589 309.167 316.139 311.05C314.689 312.933 312.664 314.983 310.064 317.2H318.864V319H307.764V317.2C308.081 316.9 308.514 316.508 309.064 316.025C309.614 315.542 310.206 315.008 310.839 314.425C311.473 313.825 312.114 313.183 312.764 312.5C313.431 311.817 314.031 311.117 314.564 310.4C315.098 309.683 315.531 308.967 315.864 308.25C316.198 307.533 316.364 306.842 316.364 306.175C316.364 305.175 316.098 304.392 315.564 303.825C315.048 303.242 314.264 302.95 313.214 302.95C312.314 302.95 311.556 303.05 310.939 303.25C310.323 303.45 309.764 303.742 309.264 304.125L308.414 302.75C309.164 302.217 309.956 301.825 310.789 301.575C311.639 301.325 312.564 301.2 313.564 301.2C315.131 301.2 316.314 301.625 317.114 302.475C317.914 303.325 318.314 304.475 318.314 305.925ZM334.305 313.55H330.93V319H328.98V313.55H320.905V312.1L329.28 301.5H330.93V311.9H334.305V313.55ZM328.98 304.625L323.205 311.9H328.98V304.625ZM348.395 322.525H346.645V319H335.745V322.525H333.995V317.15H335.67C335.737 316.95 335.887 316.508 336.12 315.825C336.37 315.142 336.62 314.175 336.87 312.925C337.137 311.675 337.378 310.108 337.595 308.225C337.812 306.342 337.92 304.1 337.92 301.5H346.52V317.15H348.395V322.525ZM344.445 317.15V303.35H339.87C339.82 305.183 339.712 306.833 339.545 308.3C339.395 309.767 339.22 311.067 339.02 312.2C338.82 313.333 338.612 314.308 338.395 315.125C338.195 315.942 338.02 316.617 337.87 317.15H344.445ZM353.985 317.575C354.652 317.575 355.26 317.492 355.81 317.325C356.377 317.142 356.868 316.892 357.285 316.575C357.702 316.258 358.027 315.875 358.26 315.425C358.493 314.975 358.61 314.475 358.61 313.925C358.61 312.775 358.202 311.958 357.385 311.475C356.585 310.975 355.502 310.725 354.135 310.725H352.535V309.525L357.46 303.3H349.985V301.5H359.86V303.3L354.935 309.075H355.335C356.102 309.075 356.802 309.183 357.435 309.4C358.068 309.617 358.618 309.925 359.085 310.325C359.552 310.725 359.91 311.208 360.16 311.775C360.427 312.342 360.56 312.983 360.56 313.7C360.56 314.6 360.385 315.4 360.035 316.1C359.685 316.8 359.21 317.392 358.61 317.875C358.01 318.342 357.302 318.7 356.485 318.95C355.685 319.183 354.827 319.3 353.91 319.3C353.06 319.3 352.318 319.233 351.685 319.1C351.068 318.983 350.502 318.833 349.985 318.65L350.485 316.9C350.918 317.1 351.427 317.267 352.01 317.4C352.593 317.517 353.252 317.575 353.985 317.575ZM363.15 310.25C363.15 308.833 363.275 307.567 363.525 306.45C363.775 305.317 364.15 304.367 364.65 303.6C365.15 302.817 365.784 302.225 366.55 301.825C367.317 301.408 368.225 301.2 369.275 301.2C370.392 301.2 371.334 301.4 372.1 301.8C372.884 302.2 373.517 302.783 374 303.55C374.484 304.317 374.834 305.267 375.05 306.4C375.267 307.517 375.375 308.8 375.375 310.25C375.375 311.667 375.25 312.942 375 314.075C374.75 315.192 374.375 316.142 373.875 316.925C373.375 317.692 372.742 318.283 371.975 318.7C371.209 319.1 370.3 319.3 369.25 319.3C368.15 319.3 367.209 319.083 366.425 318.65C365.659 318.2 365.025 317.575 364.525 316.775C364.042 315.975 363.692 315.025 363.475 313.925C363.259 312.808 363.15 311.583 363.15 310.25ZM373.325 310.25C373.325 309.367 373.275 308.525 373.175 307.725L365.75 314.5C366.034 315.45 366.459 316.208 367.025 316.775C367.592 317.342 368.334 317.625 369.25 317.625C370.717 317.625 371.759 317.017 372.375 315.8C373.009 314.583 373.325 312.733 373.325 310.25ZM365.225 310.25C365.225 310.667 365.234 311.067 365.25 311.45C365.284 311.833 365.317 312.208 365.35 312.575L372.8 305.825C372.517 304.925 372.092 304.208 371.525 303.675C370.975 303.142 370.225 302.875 369.275 302.875C367.792 302.875 366.742 303.492 366.125 304.725C365.525 305.942 365.225 307.783 365.225 310.25ZM377.291 306.775C377.291 306.008 377.416 305.292 377.666 304.625C377.916 303.942 378.291 303.35 378.791 302.85C379.307 302.333 379.941 301.933 380.691 301.65C381.441 301.35 382.316 301.2 383.316 301.2C384.249 301.2 385.082 301.35 385.816 301.65C386.549 301.95 387.166 302.375 387.666 302.925C388.182 303.458 388.574 304.117 388.841 304.9C389.107 305.667 389.241 306.525 389.241 307.475C389.241 309.342 389.007 310.983 388.541 312.4C388.074 313.817 387.424 315.017 386.591 316C385.757 316.983 384.766 317.75 383.616 318.3C382.482 318.85 381.249 319.183 379.916 319.3L379.541 317.725C380.641 317.608 381.624 317.342 382.491 316.925C383.357 316.508 384.107 315.975 384.741 315.325C385.374 314.675 385.891 313.925 386.291 313.075C386.691 312.225 386.966 311.317 387.116 310.35C386.849 310.633 386.574 310.875 386.291 311.075C386.024 311.258 385.724 311.408 385.391 311.525C385.057 311.642 384.691 311.725 384.291 311.775C383.891 311.825 383.432 311.85 382.916 311.85C382.149 311.85 381.424 311.733 380.741 311.5C380.057 311.267 379.457 310.933 378.941 310.5C378.441 310.05 378.041 309.517 377.741 308.9C377.441 308.267 377.291 307.558 377.291 306.775ZM379.341 306.575C379.341 307.775 379.699 308.675 380.416 309.275C381.149 309.875 382.116 310.175 383.316 310.175C384.266 310.175 385.082 310.033 385.766 309.75C386.466 309.45 386.957 309.083 387.241 308.65C387.274 308.417 387.291 308.233 387.291 308.1C387.291 307.95 387.291 307.783 387.291 307.6C387.291 307.017 387.207 306.442 387.041 305.875C386.891 305.308 386.649 304.8 386.316 304.35C385.982 303.9 385.549 303.542 385.016 303.275C384.499 302.992 383.874 302.85 383.141 302.85C381.941 302.85 381.007 303.175 380.341 303.825C379.674 304.475 379.341 305.392 379.341 306.575Z" fill="#E1E1E1"/>
<path d="M107.725 339.5H125.925V345.905H123.335V342.09H118.26V361.41H122.11V364H111.505V361.41H115.355V342.09H110.315V345.905H107.725V339.5ZM144.777 361.795C144.357 362.168 143.855 362.518 143.272 362.845C142.712 363.172 142.093 363.452 141.417 363.685C140.74 363.918 140.028 364.093 139.282 364.21C138.558 364.35 137.823 364.42 137.077 364.42C135.677 364.42 134.44 364.21 133.367 363.79C132.293 363.347 131.395 362.728 130.672 361.935C129.948 361.118 129.4 360.15 129.027 359.03C128.653 357.91 128.467 356.65 128.467 355.25C128.467 353.78 128.665 352.473 129.062 351.33C129.482 350.187 130.077 349.23 130.847 348.46C131.617 347.69 132.55 347.107 133.647 346.71C134.743 346.29 135.968 346.08 137.322 346.08C138.302 346.08 139.27 346.208 140.227 346.465C141.183 346.722 142.023 347.212 142.747 347.935C143.493 348.635 144.065 349.615 144.462 350.875C144.858 352.112 144.998 353.722 144.882 355.705H131.337C131.337 357.805 131.897 359.38 133.017 360.43C134.16 361.457 135.677 361.97 137.567 361.97C138.197 361.97 138.815 361.9 139.422 361.76C140.052 361.597 140.647 361.41 141.207 361.2C141.767 360.99 142.257 360.757 142.677 360.5C143.12 360.243 143.458 360.01 143.692 359.8L144.777 361.795ZM137.392 348.39C136.622 348.39 135.887 348.472 135.187 348.635C134.51 348.798 133.903 349.078 133.367 349.475C132.853 349.848 132.422 350.35 132.072 350.98C131.745 351.587 131.535 352.345 131.442 353.255H142.327C142.21 351.715 141.708 350.525 140.822 349.685C139.958 348.822 138.815 348.39 137.392 348.39ZM162.228 353.605L162.298 351.12H162.123L157.083 359.135H156.103L150.993 351.12H150.853L151.028 353.57V364H148.438V346.5H151.203L156.768 355.285H156.838L162.158 346.5H164.958V364H162.228V353.605ZM181.324 356.23H171.909V364H169.214V346.5H171.909V353.78H181.324V346.5H184.054V364H181.324V356.23ZM188.066 355.25C188.066 352.427 188.801 350.198 190.271 348.565C191.741 346.908 193.841 346.08 196.571 346.08C198.041 346.08 199.301 346.325 200.351 346.815C201.424 347.282 202.311 347.923 203.011 348.74C203.711 349.557 204.224 350.525 204.551 351.645C204.901 352.765 205.076 353.967 205.076 355.25C205.076 356.65 204.889 357.922 204.516 359.065C204.142 360.185 203.594 361.142 202.871 361.935C202.147 362.728 201.249 363.347 200.176 363.79C199.126 364.21 197.924 364.42 196.571 364.42C195.124 364.42 193.864 364.187 192.791 363.72C191.717 363.23 190.831 362.577 190.131 361.76C189.431 360.943 188.906 359.975 188.556 358.855C188.229 357.735 188.066 356.533 188.066 355.25ZM190.971 355.25C190.971 356.067 191.064 356.883 191.251 357.7C191.461 358.517 191.787 359.252 192.231 359.905C192.674 360.558 193.246 361.083 193.946 361.48C194.669 361.877 195.544 362.075 196.571 362.075C198.437 362.075 199.837 361.503 200.771 360.36C201.727 359.193 202.206 357.49 202.206 355.25C202.206 354.41 202.101 353.593 201.891 352.8C201.704 351.983 201.377 351.248 200.911 350.595C200.467 349.942 199.884 349.417 199.161 349.02C198.461 348.623 197.597 348.425 196.571 348.425C194.704 348.425 193.304 348.997 192.371 350.14C191.437 351.283 190.971 352.987 190.971 355.25ZM210.207 346.535C210.65 346.512 211.094 346.488 211.537 346.465C211.98 346.418 212.459 346.383 212.972 346.36C213.485 346.337 214.034 346.313 214.617 346.29C215.224 346.267 215.9 346.255 216.647 346.255C219.167 346.255 220.987 346.617 222.107 347.34C223.227 348.04 223.787 349.102 223.787 350.525C223.787 351.342 223.519 352.158 222.982 352.975C222.445 353.768 221.57 354.34 220.357 354.69V354.83C221.897 355.087 222.982 355.565 223.612 356.265C224.242 356.942 224.557 357.875 224.557 359.065C224.557 360.885 223.81 362.203 222.317 363.02C220.847 363.837 218.7 364.245 215.877 364.245C214.757 364.245 213.754 364.21 212.867 364.14C211.98 364.093 211.094 364.035 210.207 363.965V346.535ZM212.902 361.795C213.439 361.842 213.975 361.877 214.512 361.9C215.049 361.923 215.655 361.935 216.332 361.935C218.152 361.935 219.505 361.713 220.392 361.27C221.302 360.803 221.757 360.01 221.757 358.89C221.757 358.447 221.664 358.05 221.477 357.7C221.314 357.35 221.022 357.047 220.602 356.79C220.205 356.533 219.68 356.335 219.027 356.195C218.374 356.055 217.557 355.985 216.577 355.985H212.902V361.795ZM217.067 353.885C217.534 353.885 218 353.815 218.467 353.675C218.934 353.512 219.354 353.313 219.727 353.08C220.124 352.823 220.439 352.532 220.672 352.205C220.905 351.855 221.022 351.493 221.022 351.12C221.022 350.163 220.672 349.498 219.972 349.125C219.295 348.752 218.152 348.565 216.542 348.565C215.655 348.565 214.944 348.577 214.407 348.6C213.894 348.623 213.392 348.647 212.902 348.67V353.885H217.067ZM229.723 347.865C230.726 347.282 231.858 346.862 233.118 346.605C234.378 346.348 235.615 346.22 236.828 346.22C238.018 346.22 238.986 346.407 239.733 346.78C240.503 347.153 241.098 347.643 241.518 348.25C241.961 348.833 242.253 349.51 242.393 350.28C242.556 351.027 242.638 351.785 242.638 352.555C242.638 353.442 242.615 354.387 242.568 355.39C242.521 356.393 242.486 357.397 242.463 358.4C242.463 359.567 242.533 360.675 242.673 361.725H245.018V364H240.363L240.048 361.375H239.873C239.733 361.585 239.523 361.853 239.243 362.18C238.963 362.507 238.59 362.833 238.123 363.16C237.68 363.463 237.131 363.732 236.478 363.965C235.825 364.198 235.055 364.315 234.168 364.315C232.441 364.315 231.076 363.872 230.073 362.985C229.07 362.098 228.568 360.885 228.568 359.345C228.568 358.155 228.825 357.163 229.338 356.37C229.875 355.577 230.633 354.97 231.613 354.55C232.593 354.13 233.771 353.885 235.148 353.815C236.548 353.745 238.111 353.838 239.838 354.095C239.955 353.022 239.966 352.135 239.873 351.435C239.803 350.712 239.616 350.14 239.313 349.72C239.033 349.3 238.625 349.008 238.088 348.845C237.575 348.658 236.933 348.565 236.163 348.565C235.113 348.565 234.11 348.717 233.153 349.02C232.196 349.3 231.345 349.592 230.598 349.895L229.723 347.865ZM234.868 361.97C235.521 361.97 236.128 361.865 236.688 361.655C237.248 361.445 237.738 361.177 238.158 360.85C238.578 360.523 238.928 360.173 239.208 359.8C239.488 359.403 239.698 359.03 239.838 358.68V356.23C238.625 356.02 237.505 355.915 236.478 355.915C235.451 355.915 234.565 356.032 233.818 356.265C233.071 356.475 232.488 356.813 232.068 357.28C231.648 357.747 231.438 358.353 231.438 359.1C231.438 359.87 231.695 360.547 232.208 361.13C232.745 361.69 233.631 361.97 234.868 361.97ZM280.901 357.21H271.486L269.246 364H266.376L274.566 339.5H277.996L286.256 364H283.211L280.901 357.21ZM272.396 354.69H280.096L276.491 343.175H276.071L272.396 354.69ZM293.907 362.075C293.907 361.328 294.117 360.757 294.537 360.36C294.957 359.94 295.517 359.73 296.217 359.73C296.964 359.73 297.547 359.94 297.967 360.36C298.387 360.757 298.597 361.328 298.597 362.075C298.597 362.752 298.387 363.312 297.967 363.755C297.547 364.198 296.964 364.42 296.217 364.42C295.517 364.42 294.957 364.198 294.537 363.755C294.117 363.312 293.907 362.752 293.907 362.075ZM309.818 350.175H312.723C312.77 348.542 312.922 347.048 313.178 345.695C313.458 344.342 313.855 343.175 314.368 342.195C314.905 341.215 315.582 340.457 316.398 339.92C317.215 339.36 318.183 339.08 319.303 339.08C320.493 339.08 321.497 339.372 322.313 339.955C323.153 340.538 323.83 341.378 324.343 342.475C324.88 343.572 325.265 344.902 325.498 346.465C325.732 348.028 325.848 349.79 325.848 351.75C325.848 355.927 325.288 359.088 324.168 361.235C323.072 363.358 321.333 364.42 318.953 364.42C317.857 364.42 316.923 364.152 316.153 363.615C315.383 363.078 314.742 362.308 314.228 361.305C313.715 360.278 313.33 359.053 313.073 357.63C312.84 356.183 312.712 354.55 312.688 352.73H309.818V364H306.913V339.5H309.818V350.175ZM315.628 351.75C315.628 355.017 315.943 357.513 316.573 359.24C317.203 360.967 318.078 361.83 319.198 361.83C320.575 361.83 321.543 361.037 322.103 359.45C322.663 357.863 322.943 355.297 322.943 351.75C322.943 350.35 322.885 349.043 322.768 347.83C322.675 346.593 322.488 345.52 322.208 344.61C321.928 343.7 321.532 342.988 321.018 342.475C320.528 341.938 319.887 341.67 319.093 341.67C318.44 341.67 317.892 341.903 317.448 342.37C317.005 342.837 316.643 343.502 316.363 344.365C316.107 345.228 315.92 346.29 315.803 347.55C315.687 348.787 315.628 350.187 315.628 351.75Z" fill="#E1E1E1"/>
</svg>
