<svg width="457" height="372" viewBox="0 0 457 372" fill="none" xmlns="http://www.w3.org/2000/svg">
<path d="M33.4294 199.581L26.6379 211.276L51.5396 225.737L49.6223 229.039L21.7769 212.868L32.4031 194.57L60.2484 210.74L58.3311 214.042L33.4294 199.581Z" fill="#E1E1E1"/>
<path d="M68.8978 173.303C65.1621 169.493 62.953 165.904 62.2706 162.536C61.6101 159.146 62.6813 156.077 65.4842 153.329C67.0171 151.826 68.5881 150.844 70.1974 150.383C71.8286 149.901 73.4879 149.863 75.1754 150.27C76.8414 150.655 78.5359 151.441 80.2591 152.629C81.9607 153.796 83.6918 155.276 85.4523 157.072C89.188 160.882 91.3861 164.482 92.0466 167.871C92.729 171.239 91.6468 174.319 88.8002 177.11C87.2892 178.591 85.7291 179.563 84.1198 180.024C82.5105 180.485 80.8729 180.523 79.2069 180.138C77.5194 179.731 75.8249 178.945 74.1232 177.778C72.4001 176.59 70.6583 175.099 68.8978 173.303ZM71.7882 170.469C73.0335 171.739 74.2909 172.868 75.5606 173.857C76.8522 174.824 78.1355 175.541 79.4103 176.009C80.6637 176.455 81.8874 176.608 83.0815 176.468C84.2541 176.306 85.366 175.71 86.417 174.679C88.3002 172.833 88.9174 170.725 88.2685 168.355C87.6416 165.963 85.7393 163.147 82.5618 159.906C81.3381 158.658 80.0804 157.55 78.7888 156.583C77.4976 155.573 76.2254 154.845 74.972 154.399C73.6972 153.931 72.4625 153.789 71.268 153.972C70.052 154.133 68.9184 154.729 67.8674 155.76C66.0061 157.585 65.4106 159.693 66.0809 162.085C66.7298 164.456 68.6322 167.25 71.7882 170.469Z" fill="#E1E1E1"/>
<path d="M108.859 120.481C109.744 119.675 110.754 118.904 111.889 118.168C113.024 117.433 114.169 116.746 115.322 116.106C116.555 115.421 117.869 114.85 119.263 114.392C120.684 113.919 122.096 113.714 123.499 113.777C124.902 113.84 126.237 114.256 127.506 115.025C128.801 115.78 129.933 117.028 130.9 118.771C131.852 120.487 132.348 122.106 132.386 123.628C132.424 125.15 132.142 126.57 131.539 127.886C130.922 129.175 130.046 130.346 128.911 131.396C127.775 132.447 126.51 133.36 125.116 134.134C124.982 134.208 124.754 134.335 124.432 134.513C124.137 134.677 123.816 134.855 123.467 135.049C123.13 135.201 122.794 135.352 122.457 135.504C122.12 135.656 121.878 135.756 121.729 135.803L127.666 146.502L124.328 148.355L108.859 120.481ZM117.009 118.957C116.312 119.344 115.649 119.729 115.02 120.113C114.392 120.497 113.92 120.847 113.604 121.163L120.077 132.827C120.241 132.806 120.478 132.727 120.787 132.59C121.082 132.427 121.398 132.269 121.735 132.117C122.057 131.939 122.365 131.767 122.66 131.604C122.955 131.44 123.169 131.321 123.303 131.247C124.215 130.741 125.069 130.162 125.864 129.51C126.672 128.816 127.311 128.04 127.782 127.183C128.253 126.325 128.472 125.362 128.44 124.292C128.435 123.208 128.075 122.022 127.361 120.735C126.75 119.636 126.03 118.843 125.199 118.357C124.38 117.83 123.503 117.545 122.568 117.503C121.645 117.419 120.702 117.521 119.74 117.81C118.777 118.098 117.867 118.481 117.009 118.957Z" fill="#E1E1E1"/>
<path d="M150.009 95.4928L173.238 89.782L175.248 97.9566L171.942 98.7692L170.745 93.9002L164.268 95.4927L170.33 120.15L175.244 118.942L176.056 122.248L162.521 125.576L161.709 122.27L166.622 121.062L160.56 96.4042L154.128 97.9857L155.325 102.855L152.019 103.667L150.009 95.4928Z" fill="#E1E1E1"/>
<path d="M221.875 115.054C220.526 115.016 219.197 114.809 217.889 114.434C216.611 114.06 215.479 113.398 214.494 112.45C213.51 111.47 212.72 110.113 212.126 108.378C211.562 106.644 211.32 104.397 211.399 101.639C211.47 99.1555 211.822 97.0488 212.454 95.3182C213.087 93.5876 213.909 92.1999 214.92 91.1551C215.933 90.0797 217.105 89.3156 218.438 88.8629C219.77 88.4103 221.172 88.205 222.643 88.2472L222.738 84.9365L226.554 85.0459L226.459 88.3566C227.778 88.3943 229.075 88.6309 230.351 89.0663C231.628 89.4711 232.773 90.1942 233.786 91.2356C234.8 92.2464 235.604 93.6194 236.199 95.3545C236.794 97.0589 237.054 99.2446 236.977 101.911C236.903 104.517 236.518 106.684 235.825 108.413C235.161 110.143 234.294 111.514 233.222 112.526C232.18 113.539 230.994 114.242 229.664 114.633C228.364 115.025 227.04 115.202 225.691 115.164L225.579 119.072L221.763 118.963L221.875 115.054ZM233.161 101.802C233.212 100.024 233.087 98.5019 232.786 97.2354C232.485 95.9383 232.025 94.882 231.404 94.0666C230.814 93.252 230.079 92.648 229.201 92.2547C228.323 91.8307 227.333 91.6029 226.229 91.5713L225.644 111.987C226.748 112.019 227.748 111.894 228.646 111.613C229.575 111.302 230.358 110.757 230.994 109.977C231.63 109.198 232.135 108.154 232.51 106.845C232.886 105.506 233.103 103.825 233.161 101.802ZM215.215 101.748C215.162 103.587 215.256 105.139 215.496 106.404C215.766 107.669 216.181 108.709 216.741 109.523C217.301 110.306 218.021 110.894 218.899 111.287C219.809 111.651 220.862 111.85 222.058 111.884L222.643 91.4685C221.6 91.4386 220.63 91.5795 219.731 91.8913C218.864 92.1732 218.097 92.7188 217.43 93.528C216.794 94.3074 216.272 95.3662 215.866 96.7045C215.49 98.0436 215.273 99.7247 215.215 101.748Z" fill="#E1E1E1"/>
<path d="M258.298 108.181C259.869 103.081 261.972 99.4291 264.608 97.2246C267.274 95.0292 270.482 94.5091 274.234 95.6643C276.285 96.2961 277.897 97.2096 279.069 98.4048C280.271 99.6091 281.094 101.05 281.541 102.728C281.996 104.376 282.111 106.24 281.888 108.321C281.673 110.373 281.196 112.601 280.456 115.004C278.885 120.104 276.767 123.751 274.102 125.947C271.465 128.151 268.242 128.667 264.432 127.493C262.41 126.871 260.813 125.962 259.641 124.766C258.468 123.571 257.655 122.149 257.2 120.501C256.754 118.824 256.638 116.959 256.853 114.907C257.076 112.826 257.558 110.584 258.298 108.181ZM262.167 109.372C261.644 111.072 261.25 112.716 260.986 114.303C260.751 115.899 260.731 117.369 260.927 118.713C261.132 120.027 261.58 121.176 262.272 122.159C262.973 123.113 264.027 123.807 265.434 124.24C267.955 125.016 270.102 124.555 271.877 122.855C273.681 121.164 275.251 118.15 276.587 113.813C277.101 112.142 277.476 110.509 277.711 108.912C277.984 107.296 278.018 105.83 277.813 104.516C277.617 103.172 277.154 102.019 276.424 101.056C275.703 100.063 274.639 99.3508 273.232 98.9176C270.741 98.1504 268.603 98.6313 266.819 100.36C265.044 102.06 263.494 105.064 262.167 109.372Z" fill="#E1E1E1"/>
<path d="M336.004 129.437L328.676 124.758C325.117 129.762 322.02 133.843 319.385 137C316.793 140.148 314.46 142.405 312.386 143.773C311.025 144.651 309.775 145.126 308.637 145.2C307.498 145.273 306.476 145.021 305.572 144.444C305.107 144.147 304.731 143.852 304.444 143.56C304.141 143.294 303.876 142.997 303.648 142.67L305.857 140.15C306.066 140.393 306.313 140.605 306.597 140.787C307.037 141.067 307.554 141.197 308.149 141.177C308.77 141.173 309.535 140.916 310.443 140.405C311.251 139.938 312.181 139.222 313.234 138.257C314.313 137.308 315.538 136.017 316.909 134.382C318.306 132.763 319.867 130.776 321.59 128.42C323.329 126.037 325.294 123.217 327.484 119.958L341.053 128.623L323.724 155.762L320.506 153.707L336.004 129.437Z" fill="#E1E1E1"/>
<path d="M364.423 176.539L368.022 173.66L367.837 173.456L362.225 174.929L338.779 179.989L336.343 177.292L360.24 155.71L362.799 158.543L346.754 173.034L343.22 175.916L343.405 176.12L348.986 174.613L372.603 169.399L375.039 172.096L351.142 193.678L348.583 190.845L364.423 176.539Z" fill="#E1E1E1"/>
<path d="M383.743 212.959C388.508 210.559 392.599 209.546 396.015 209.92C399.445 210.321 402.043 212.274 403.809 215.78C404.775 217.697 405.232 219.493 405.183 221.166C405.146 222.867 404.678 224.459 403.777 225.943C402.904 227.413 401.639 228.788 399.984 230.068C398.355 231.335 396.418 232.534 394.172 233.665C389.407 236.066 385.309 237.065 381.879 236.664C378.463 236.29 375.858 234.323 374.065 230.762C373.113 228.872 372.662 227.091 372.712 225.418C372.762 223.744 373.224 222.172 374.097 220.702C374.998 219.219 376.262 217.843 377.891 216.577C379.546 215.296 381.497 214.091 383.743 212.959ZM385.564 216.575C383.975 217.375 382.517 218.229 381.19 219.139C379.876 220.075 378.802 221.079 377.969 222.152C377.163 223.21 376.645 224.329 376.415 225.509C376.213 226.676 376.443 227.916 377.105 229.231C378.292 231.586 380.112 232.815 382.568 232.918C385.037 233.048 388.298 232.092 392.351 230.05C393.912 229.263 395.35 228.402 396.664 227.466C398.019 226.543 399.099 225.552 399.905 224.494C400.739 223.421 401.25 222.288 401.438 221.095C401.654 219.887 401.431 218.626 400.769 217.311C399.596 214.983 397.768 213.775 395.286 213.686C392.831 213.584 389.59 214.547 385.564 216.575Z" fill="#E1E1E1"/>
</svg>
